<?xml version="1.0" encoding="UTF-8"?><svg id="a" xmlns="http://www.w3.org/2000/svg" viewBox="0 0 1270.20703 1183.90002"><path d="M1248.80703,3.3c-3,1.8-14.5,8.6-25.5,15.1-113.5,67.1-236.8,160.3-358.50001,270.9-64.7,58.9-140.3,134.2-203,202.1-108.5,117.6-218,252.3-311.3,382.90001l-4.8,6.7-3.2-1.9c-1.8-1.1-75.8-43-164.6-93.2-130.9-73.9-161.6-90.9-162.6-89.8-6.2,6.8-15.6,19.1-15.3,20,.2.6,90.8,106.1,201.4,234.4l200.9,233.3h7.5l7.6.1,15.3-30.8c174.3-350.60001,357.90001-626.10001,584.00001-876.70001,66-73.1,162.4-170.1,238.1-239.4,8.5-7.8,15.4-14.8,15.4-15.6-.2-1.5-14.5-21.4-15.4-21.4-.3,0-3,1.4-6,3.3Z" fill="#0c8d6a" stroke-width="0"/></svg>